inDegrees=no
num_controls=7
num_derivatives=13
num_iterations=61
num_multipliers=7
num_parameters=0
num_slacks=7
num_states=26
objective=0.333332
objective_accelerations=0.034072
objective_balance=0.003414
objective_effort=0.035074
objective_height=0.255539
objective_ligament=0.005233
solver_duration=891.629068
status=Solve_Succeeded
success=true
DataType=double
version=3
OpenSimVersion=4.5
endheader
time	/jointset/ground_pelvis/pelvis_tilt/value	/jointset/ground_pelvis/pelvis_tx/value	/jointset/ground_pelvis/pelvis_ty/value	/jointset/hip_l/hip_flexion_l/value	/jointset/hip_l/hip_adduction_l/value	/jointset/hip_l/hip_rotation_l/value	/jointset/back/lumbar_extension/value	/jointset/patellofemoral_l/patellar_flexion_l/value	/jointset/knee_l/knee_flexion_l/value	/jointset/knee_l/knee_adduction_l/value	/jointset/knee_l/knee_rotation_l/value	/jointset/ankle_l/ankle_angle_l/value	/jointset/subtalar_l/subtalar_angle_l/value	/jointset/ground_pelvis/pelvis_tilt/speed	/jointset/ground_pelvis/pelvis_tx/speed	/jointset/ground_pelvis/pelvis_ty/speed	/jointset/hip_l/hip_flexion_l/speed	/jointset/hip_l/hip_adduction_l/speed	/jointset/hip_l/hip_rotation_l/speed	/jointset/back/lumbar_extension/speed	/jointset/patellofemoral_l/patellar_flexion_l/speed	/jointset/knee_l/knee_flexion_l/speed	/jointset/knee_l/knee_adduction_l/speed	/jointset/knee_l/knee_rotation_l/speed	/jointset/ankle_l/ankle_angle_l/speed	/jointset/subtalar_l/subtalar_angle_l/speed	/forceset/tau_hip_flexion_l	/forceset/tau_hip_adduction_l	/forceset/tau_hip_rotation_l	/forceset/tau_knee_flexion_l	/forceset/tau_ankle_angle_l	/forceset/tau_subtalar_angle_l	/forceset/tau_lumbar_extension	lambda_cid13_p0	lambda_cid13_p1	lambda_cid13_p2	lambda_cid13_p3	lambda_cid13_p4	lambda_cid13_p5	lambda_cid14_p0	/jointset/ground_pelvis/pelvis_tilt/accel	/jointset/ground_pelvis/pelvis_tx/accel	/jointset/ground_pelvis/pelvis_ty/accel	/jointset/hip_l/hip_flexion_l/accel	/jointset/hip_l/hip_adduction_l/accel	/jointset/hip_l/hip_rotation_l/accel	/jointset/back/lumbar_extension/accel	/jointset/patellofemoral_l/patellar_flexion_l/accel	/jointset/knee_l/knee_flexion_l/accel	/jointset/knee_l/knee_adduction_l/accel	/jointset/knee_l/knee_rotation_l/accel	/jointset/ankle_l/ankle_angle_l/accel	/jointset/subtalar_l/subtalar_angle_l/accel	gamma_cid13_p0	gamma_cid13_p1	gamma_cid13_p2	gamma_cid13_p3	gamma_cid13_p4	gamma_cid13_p5	gamma_cid14_p0
0	-0.04244953681293918	0.07020781390646502	0.8960696722154958	0.1955287580552426	-0.3207447081266665	-0.508255682725263	-0.1379045077516729	0.07015288079084811	0.07015288079084844	-0.1745316085035882	-0.1414827578682399	-0.06701059314715049	0.005456564891406867	0	0	0	0	0	0	0	0	0	0	0	0	0	0.1262414212253631	-0.07803895701478755	-0.02731103447164057	-0.18356657986787	0.1128237835648353	-0.03589527540411122	-0.08745774315761358	2.671324951878238	9.162552055731041	5.009974106120024	30.29743161860814	-458.0000764625115	-61.56971930906579	-40.57019996822634	-6.503154130762756	-4.456828379425677	-2.284664107827747	31.93807280027446	-4.792499191299041	10.35394487829635	-7.203358744030539	34.41069780959634	34.41069780959823	8.489865000223341	-3.195202941515586	11.57180295542853	1.034502217879842	2.270687134329301e-07	3.093786198883887e-06	-1.622389760851748e-07	1.77488844101742e-07	2.03801645749816e-06	7.09186919040241e-07	3.824521932314074e-07
0.01	-0.04274968085147077	0.06998825199172891	0.8959591911341858	0.1970688021658878	-0.3209801028785846	-0.5077366233224759	-0.1382812779931614	0.07182729825178055	0.07182729825177962	-0.1741217868290184	-0.1416239484676827	-0.06644918563681154	0.005503446213910402	-0.05973099537002283	-0.04365811675952555	-0.02207926200800965	0.3060169668275923	-0.04667264312987038	0.1030180754840859	-0.07463822493944043	0.3323664687566257	0.3323664687566373	0.08131625853621605	-0.02793273128846742	0.1112992243680212	0.009286207146224482	0.1189456471607842	-0.07918534849693147	-0.02610506869578939	-0.1764551699424075	0.1014179717925136	-0.02851241847315966	-0.08090233361788549	-0.7795690749531842	6.662241848846941	5.292278032288783	31.23888095358716	-459.7677120112465	-66.61243208620647	-40.60295587703781	-5.663565194413741	-4.282127898253614	-2.166606505898653	29.6345911624976	-4.544207752457224	10.15685281874345	-7.48668086517201	32.27199140377048	32.27199140377114	7.855789789337082	-2.546729682087119	10.76172290413181	0.8616984165035311	7.665875931598736e-08	3.407836000645284e-06	3.545107771835539e-07	4.358866355416354e-07	9.67430821885392e-07	1.973910094082802e-07	4.32091644941248e-07
0.02	-0.04363823343456135	0.06933974399459007	0.8956285075810735	0.2016092324525083	-0.3216701362375272	-0.5062111603777931	-0.1393829557832991	0.07674985439929431	0.07674985439929424	-0.1729181458672827	-0.142035350671925	-0.06480423773746381	0.005640393298578138	-0.1176817089117154	-0.08578921648055134	-0.0440404943604718	0.6000772351950225	-0.0909277214047894	0.2012807083793215	-0.1449815097297306	0.6496277373162435	0.6496277373162614	0.1587638574330868	-0.05404232095992666	0.2167080778017585	0.01801315243284048	0.1116498730962157	-0.08033173997907053	-0.02489910291993446	-0.1693437600169365	0.09001216002019732	-0.02112956154219993	-0.07434692407815666	-3.953900466508215	4.135928931547991	5.553097669417208	31.70190181569094	-457.3825131155469	-71.03555362497961	-40.69702564017671	-6.147097765096718	-4.151424971725712	-2.261058176718249	29.54673310824203	-4.308986220308775	9.402856360526288	-6.344370714200505	31.38965777019477	31.38965777019559	7.716133072354269	-2.830574618113946	10.39372876857177	0.9226498459581471	-7.375119480095541e-08	3.721885802406682e-06	8.712605304522826e-07	6.942844269815287e-07	-1.03154813727376e-07	-3.144049002236806e-07	4.817310966510886e-07
0.03	-0.04510123236340307	0.06828023150744529	0.895076153774182	0.2090353738980472	-0.3227896583632277	-0.5037291595902493	-0.1411567524575031	0.08477478034674327	0.08477478034674372	-0.1709570763689064	-0.1427001497761801	-0.06212929726772672	0.005865816125931252	-0.1744343509938917	-0.1255731574065041	-0.06658799267793727	0.8826932827670816	-0.1325428208788624	0.2943199873211849	-0.2086899428596165	0.9528908707693888	0.9528908707693791	0.2326899381041369	-0.07840256633131375	0.3176497301946974	0.02720437777138932	0.1039023636398626	-0.07408436118290265	-0.02432579345211985	-0.1684199882512893	0.09504177018319697	-0.02342530629445796	-0.06705725108761078	-1.989317279537262	4.814438930347484	5.415858528399149	27.65199053031709	-452.6242528938644	-66.76250387667369	-40.84297815996963	-5.366933889179244	-3.810720220789656	-2.275279464838694	27.25021851464351	-4.023453104402364	9.134597436791244	-6.220897274684472	29.42455737546486	29.42455737546075	7.117575027985661	-2.161617705325626	9.849943557818239	0.9366118466274272	-6.83303027027988e-08	3.456058820846428e-06	4.937770331236772e-07	7.070514602865991e-07	-5.514576285613239e-08	-3.947829942776874e-08	4.568996949015808e-07
0.04	-0.0471172750049469	0.0668391112974891	0.8942935882230002	0.219213911405898	-0.3243124677423579	-0.5003407392581316	-0.1435349969954664	0.09575832087724159	0.0957583208772414	-0.1682794001711167	-0.1435931249758837	-0.05846382825742748	0.00618700180043469	-0.2282904514521139	-0.1621107610428335	-0.09008284321853222	1.150556447657368	-0.1715851720907668	0.382564617294044	-0.2658710824815775	1.241350653926152	1.241350653926132	0.302085197315398	-0.09967754004968199	0.4148137859141685	0.03716572186290528	0.09615485418350764	-0.06783698238673606	-0.02375248398430765	-0.1674962164856465	0.1000713803461937	-0.02572105104671899	-0.05976757809706262	0.1850577732879181	5.481189908600383	5.251954566228515	23.24528943191204	-444.7287773391578	-61.96184087828519	-41.02783087413264	-5.567789440305913	-3.502157513801009	-2.450528621344145	26.59615657188759	-3.794436567875043	8.443926566725443	-5.038912012615566	28.42898771091832	28.42898771092267	6.809968780396441	-2.213520287510173	9.638209433878243	1.076673596551578	-5.969640346618654e-08	3.178275616949645e-06	9.785573681368335e-08	7.147539418775493e-07	1.592709598385376e-08	2.516693840573779e-07	4.305328116374472e-07
0.05	-0.04966409531263848	0.06504742581355392	0.8932689073743002	0.2320117101511578	-0.3262118556639061	-0.4960987979724985	-0.1464482683980208	0.1095602647485741	0.1095602647485729	-0.1649264092637781	-0.1446898132128492	-0.05384447255886561	0.006613415302415936	-0.280579316766596	-0.1957996058348889	-0.1151519190555966	1.406784856796409	-0.2077784298565827	0.4649774732425266	-0.3160001531071651	1.51660462216717	1.516604622167159	0.3678182275273183	-0.1191130496491272	0.508261300850256	0.0482509679767381	0.0883323907073033	-0.0659875189039832	-0.02275330050303727	-0.1649257071368883	0.09801169480606306	-0.02281832362359012	-0.05328872592932489	0.3648971072117625	4.338670380432659	5.263198656818483	20.76210402261685	-434.8427243351875	-61.43892436234665	-41.23620143499473	-4.985391363656631	-3.238095462443721	-2.579882185265266	24.80330687081202	-3.455205888590188	8.013200489330767	-4.882447849228026	26.70849076122337	26.70849076122216	6.351296518577434	-1.726697069643833	9.078679402007031	1.144041462130579	1.522754270283739e-07	2.925558726608136e-06	-1.074190195896777e-06	5.59539712813239e-07	9.277122042611039e-07	1.136321432351531e-06	4.48456473427042e-07
0.06	-0.0527189955308025	0.06293168238159104	0.8919845787431542	0.247305217744988	-0.3284578632646437	-0.4910580810512964	-0.1498393391591709	0.1260417261784224	0.1260417261784215	-0.1609368227789241	-0.145964482700506	-0.04831451033523625	0.007154599534201798	-0.3299064335465698	-0.2269223506483759	-0.1420123997077724	1.649698217371439	-0.240909107928612	0.5423197444078527	-0.3614309542006606	1.777254165629382	1.777254165629364	0.4294043128187434	-0.1352737901878578	0.5969350909276646	0.06011986782382892	0.08050992723110155	-0.06413805542122838	-0.02175411702176251	-0.1623551977881278	0.09595200926593425	-0.01991559620045812	-0.04680987376158795	0.6804648280952706	3.183967004464533	5.263154030970172	18.07543703800409	-422.9164877111775	-60.54623170000448	-41.45102097390391	-4.975439733404274	-2.988937518087303	-2.808809584366428	23.93314685908549	-3.181920629117725	7.429809610094107	-4.099258106197174	25.50810275515712	25.50810275515814	5.980579796297397	-1.558566475367259	8.683464462142449	1.233404343203186	3.728088546285321e-07	2.67389725999527e-06	-2.278915060666203e-06	3.974658327739703e-07	1.874895723040975e-06	2.045963138111326e-06	4.682450002715307e-07
0.07000000000000001	-0.05625879362692281	0.06051770449376081	0.8904209627957067	0.2649720323995027	-0.3310200422785391	-0.4852726919619624	-0.1536537215471608	0.145063102201815	0.1450631022018143	-0.1563502091428877	-0.1473892219440005	-0.04191938810015553	0.00781956041097806	-0.377565677054134	-0.2554059113581187	-0.1710869200892772	1.881447537625088	-0.2710578489872577	0.6138898565090021	-0.4005938951182551	2.024631173421743	2.024631173421739	0.4871028135796144	-0.149129200053011	0.6812996319290023	0.07296859374002455	0.07273995138437472	-0.0619476360820693	-0.02085404810044015	-0.1609086842400904	0.09579384296941514	-0.0175289731366347	-0.04044492013458065	1.637276479995423	2.156411207242925	5.225384896403505	14.81980660908211	-410.3352615174016	-59.05849600471912	-41.65432597825624	-4.58809533647072	-2.707890484817127	-3.012806351020491	22.4632150446364	-2.861114029764906	6.890901582886795	-3.697067842702384	23.99392605830345	23.99392605830531	5.542291879950941	-1.217837175255189	8.194522012649482	1.324906203727837	4.988380076130467e-07	1.557557896689696e-06	-3.156424616032097e-06	6.660315384987816e-08	2.702417796933236e-06	2.483429810704543e-06	3.346762772131989e-07
0.08	-0.06026056989352643	0.05783292597135332	0.8885553950272487	0.2848898183437801	-0.3338696613401263	-0.4787975438370644	-0.157834184495959	0.1664865335565371	0.1664865335565358	-0.1512110491664481	-0.1489362770727791	-0.03470430583635738	0.008615868444496293	-0.4223020676432273	-0.2810824775638303	-0.2024027639098978	2.09989247532401	-0.2983971174669802	0.6802715515206095	-0.4346470663623228	2.257665231895218	2.257665231895236	0.5399135808992449	-0.1597369672447974	0.760927096671142	0.08638929917222354	0.06496997553764602	-0.05975721674291073	-0.01995397917912231	-0.159462170692055	0.09563567667289456	-0.01514235007281256	-0.03407996650757331	2.655551966590213	1.123396825255139	5.182430131927726	11.49353634233745	-396.8340387218014	-57.34639137791999	-41.82801162904005	-4.39086914971009	-2.427538617281048	-3.257074272189597	21.27227034813996	-2.620026113333089	6.392126192185724	-3.077304171491829	22.63951289137987	22.63951289138237	5.003033108049315	-0.9090379406938851	7.736049210302823	1.347800246403864	6.187701106223582e-07	3.85432862629756e-07	-4.01282350627518e-06	-2.751491250022667e-07	3.522219777606939e-06	2.890433577932173e-06	1.912135380321046e-07
